<svg xmlns="http://www.w3.org/2000/svg" width="200" height="200" viewBox="0 0 200 200">
  <defs>
    <linearGradient id="g" x1="0" y1="0" x2="1" y2="1">
      <stop offset="0" stop-color="#111"/>
      <stop offset="1" stop-color="#ff5252"/>
    </linearGradient>
  </defs>
  <rect width="200" height="200" rx="32" fill="url(#g)"/>
  <!-- Hook symbol -->
  <path d="M120 44a20 20 0 10-40 0v58c0 13.3-10.7 24-24 24-8.8 0-16-7.2-16-16s7.2-16 16-16c5.5 0 10 4.5 10 10 0 7.7 6.3 14 14 14s14-6.3 14-14V44a26 26 0 1152 0v34a6 6 0 11-12 0V44z"
        fill="#fff"/>
  <text x="100" y="176" text-anchor="middle" font-family="system-ui,Segoe UI,Roboto,Arial" font-size="26" font-weight="700" fill="#fff">hooked</text>
</svg>
